<svg width="20" height="20" viewBox="0 0 20 20" fill="none" xmlns="http://www.w3.org/2000/svg">
<g id="Iconly/Bold/Calendar">
<g id="Calendar">
<path id="Calendar_2" fill-rule="evenodd" clip-rule="evenodd" d="M13.6757 2.30717L13.6766 2.93186C15.9721 3.11177 17.4885 4.67598 17.4909 7.07478L17.5 14.0963C17.5033 16.7116 15.8602 18.3208 13.2265 18.325L6.79324 18.3333C4.17599 18.3366 2.51235 16.6891 2.50906 14.0663L2.50001 7.12726C2.49671 4.71263 3.95961 3.15258 6.25514 2.94185L6.25432 2.31717C6.2535 1.95068 6.52501 1.67499 6.88703 1.67499C7.24905 1.67415 7.52057 1.94902 7.52139 2.3155L7.52221 2.89854L12.4095 2.89188L12.4087 2.30884C12.4078 1.94235 12.6794 1.66749 13.0414 1.66666C13.3952 1.66583 13.6749 1.94069 13.6757 2.30717ZM3.7679 7.38463L16.2247 7.36797V7.07645C16.1893 5.28568 15.2908 4.34615 13.6782 4.20622L13.679 4.84756C13.679 5.20572 13.4001 5.48974 13.0463 5.48974C12.6843 5.49058 12.412 5.20738 12.412 4.84923L12.4111 4.17457L7.52386 4.18123L7.52468 4.85506C7.52468 5.21405 7.25399 5.49724 6.89197 5.49724C6.52995 5.49807 6.25761 5.21571 6.25761 4.85673L6.25679 4.21538C4.65238 4.37613 3.76461 5.319 3.76708 7.12559L3.7679 7.38463ZM12.6999 11.1702V11.1794C12.7082 11.5625 13.0208 11.8532 13.4001 11.8449C13.7704 11.8357 14.0657 11.5184 14.0575 11.1353C14.0402 10.7688 13.7432 10.4697 13.3738 10.4706C12.9953 10.4789 12.6991 10.7871 12.6999 11.1702ZM13.3795 14.91C13.0011 14.9017 12.6958 14.586 12.695 14.2029C12.6868 13.8197 12.9904 13.5024 13.3688 13.4932H13.3771C13.7638 13.4932 14.0772 13.8089 14.0772 14.2004C14.0781 14.5919 13.7654 14.9092 13.3795 14.91ZM9.3101 11.1836C9.32655 11.5667 9.64003 11.8657 10.0185 11.8491C10.3888 11.8316 10.6841 11.5151 10.6677 11.1319C10.6586 10.7571 10.3542 10.4656 9.98395 10.4664C9.60547 10.4831 9.30928 10.8004 9.3101 11.1836ZM10.0218 14.8725C9.64332 14.8892 9.33067 14.5902 9.31339 14.207C9.31339 13.8239 9.60877 13.5074 9.98724 13.4899C10.3575 13.4891 10.6627 13.7806 10.671 14.1546C10.6882 14.5385 10.392 14.8551 10.0218 14.8725ZM5.92027 11.2127C5.93673 11.5959 6.25021 11.8957 6.62868 11.8782C6.99893 11.8616 7.2943 11.5442 7.27703 11.1611C7.2688 10.7863 6.96437 10.4947 6.5933 10.4956C6.21483 10.5122 5.91945 10.8296 5.92027 11.2127ZM6.63197 14.8767C6.2535 14.8942 5.94084 14.5943 5.92356 14.2112C5.92274 13.8281 6.21894 13.5107 6.59741 13.4941C6.96766 13.4932 7.27291 13.7848 7.28114 14.1596C7.29842 14.5427 7.00304 14.8601 6.63197 14.8767Z" fill="black" fill-opacity="0.87"/>
</g>
</g>
</svg>
