<svg width="15" height="15" viewBox="0 0 15 15" fill="none" xmlns="http://www.w3.org/2000/svg">
<g id="Fether Icons /film">
<path id="Vector (Stroke)" fill-rule="evenodd" clip-rule="evenodd" d="M2.44062 1.875C2.06011 1.875 1.75164 2.20519 1.75164 2.6125V12.3875C1.75164 12.7948 2.06011 13.125 2.44062 13.125H11.5725C11.953 13.125 12.2615 12.7948 12.2615 12.3875V2.6125C12.2615 2.20519 11.953 1.875 11.5725 1.875H2.44062ZM0.583878 2.6125C0.583878 1.51483 1.41517 0.625 2.44062 0.625H11.5725C12.598 0.625 13.4293 1.51483 13.4293 2.6125V12.3875C13.4293 13.4852 12.598 14.375 11.5725 14.375H2.44062C1.41517 14.375 0.583878 13.4852 0.583878 12.3875V2.6125Z" fill="#C7C3E0"/>
<path id="Vector (Stroke)_2" fill-rule="evenodd" clip-rule="evenodd" d="M4.08718 0.625C4.40965 0.625 4.67106 0.904822 4.67106 1.25V13.75C4.67106 14.0952 4.40965 14.375 4.08718 14.375C3.76471 14.375 3.5033 14.0952 3.5033 13.75V1.25C3.5033 0.904822 3.76471 0.625 4.08718 0.625Z" fill="#C7C3E0"/>
<path id="Vector (Stroke)_3" fill-rule="evenodd" clip-rule="evenodd" d="M9.92598 0.625C10.2485 0.625 10.5099 0.904822 10.5099 1.25V13.75C10.5099 14.0952 10.2485 14.375 9.92598 14.375C9.60351 14.375 9.3421 14.0952 9.3421 13.75V1.25C9.3421 0.904822 9.60351 0.625 9.92598 0.625Z" fill="#C7C3E0"/>
<path id="Vector (Stroke)_4" fill-rule="evenodd" clip-rule="evenodd" d="M0.583878 7.5C0.583878 7.15482 0.84529 6.875 1.16776 6.875H12.8454C13.1679 6.875 13.4293 7.15482 13.4293 7.5C13.4293 7.84518 13.1679 8.125 12.8454 8.125H1.16776C0.84529 8.125 0.583878 7.84518 0.583878 7.5Z" fill="#C7C3E0"/>
<path id="Vector (Stroke)_5" fill-rule="evenodd" clip-rule="evenodd" d="M0.583878 4.375C0.583878 4.02982 0.84529 3.75 1.16776 3.75H4.08717C4.40964 3.75 4.67105 4.02982 4.67105 4.375C4.67105 4.72018 4.40964 5 4.08717 5H1.16776C0.84529 5 0.583878 4.72018 0.583878 4.375Z" fill="#C7C3E0"/>
<path id="Vector (Stroke)_6" fill-rule="evenodd" clip-rule="evenodd" d="M0.583878 10.625C0.583878 10.2798 0.84529 10 1.16776 10H4.08717C4.40964 10 4.67105 10.2798 4.67105 10.625C4.67105 10.9702 4.40964 11.25 4.08717 11.25H1.16776C0.84529 11.25 0.583878 10.9702 0.583878 10.625Z" fill="#C7C3E0"/>
<path id="Vector (Stroke)_7" fill-rule="evenodd" clip-rule="evenodd" d="M9.3421 10.625C9.3421 10.2798 9.60351 10 9.92598 10H12.8454C13.1679 10 13.4293 10.2798 13.4293 10.625C13.4293 10.9702 13.1679 11.25 12.8454 11.25H9.92598C9.60351 11.25 9.3421 10.9702 9.3421 10.625Z" fill="#C7C3E0"/>
<path id="Vector (Stroke)_8" fill-rule="evenodd" clip-rule="evenodd" d="M9.3421 4.375C9.3421 4.02982 9.60351 3.75 9.92598 3.75H12.8454C13.1679 3.75 13.4293 4.02982 13.4293 4.375C13.4293 4.72018 13.1679 5 12.8454 5H9.92598C9.60351 5 9.3421 4.72018 9.3421 4.375Z" fill="#C7C3E0"/>
</g>
</svg>
