<svg width="23" height="63" viewBox="0 0 23 63" fill="none" xmlns="http://www.w3.org/2000/svg">
<path d="M13.4725 47.7258L12.1016 18.2224H14.6476L13.4725 47.7258Z" fill="black" stroke="#1A1A1A"/>
<path d="M9.23056 37.8479C9.23056 49.1288 29.9575 53.0171 19.5864 53.0171C9.21527 53.0171 0.8078 49.1288 0.8078 37.8479C0.8078 26.567 9.21527 21.6274 19.5864 21.6274C29.9575 21.6274 9.23056 26.567 9.23056 37.8479Z" fill="#C3BFDB"/>
<path d="M13.4656 47.8357L13.2015 40.7509H13.6856L13.4656 47.8357Z" fill="black" stroke="#1A1A1A"/>
<path d="M9.63846 17.2224L8.91437 16.1198H17.6419L16.8454 17.2224H9.63846Z" fill="black" stroke="#1A1A1A"/>
<rect x="12.6302" y="3.20343" width="1.20925" height="12.2167" fill="black" stroke="#1A1A1A"/>
<path d="M14.6679 2.25285C14.6679 3.29547 13.9572 4.0057 13.2348 4.0057C12.5124 4.0057 11.8017 3.29547 11.8017 2.25285C11.8017 1.21023 12.5124 0.5 13.2348 0.5C13.9572 0.5 14.6679 1.21023 14.6679 2.25285Z" fill="black" stroke="#1A1A1A"/>
</svg>
